<svg xmlns="http://www.w3.org/2000/svg" width="551.085" height="599.58" viewBox="0 0 551.085 599.58">
  <g id="Group_24" data-name="Group 24" transform="translate(-1371.603 -31.719)" opacity="0.2">
    <path id="Union_1" data-name="Union 1" d="M678.158-2825.3q0-143.061-.055-286.122c-.007-2.934.681-4.635,3.443-6.192,17.639-9.952,35.134-20.16,52.67-30.285q26.6-15.363,53.2-30.732c3.843-2.225,3.767-5.456-.083-7.7-16.144-9.423-32.276-18.873-48.469-28.205a4.3,4.3,0,0,1-2.569-4.271q.082-97.789.048-195.569c0-.675.069-1.35.145-2.783,3.168,2.349,5.964,4.361,8.692,6.468,7.425,5.731,14.754,11.6,22.268,17.205a5.565,5.565,0,0,1,2.411,5.153c-.049,49.694,0,99.389-.124,149.084-.007,3.126,1.075,4.676,3.622,6.123,15.828,8.975,31.546,18.136,47.374,27.117a6.357,6.357,0,0,1,3.685,6.46c-.221,11.7-.172,23.412-.021,35.121a5.036,5.036,0,0,1-2.921,5.125q-33.939,19.309-67.782,38.777c-13.231,7.583-26.414,15.256-39.721,22.709-2.369,1.329-2.638,2.982-2.631,5.3q.051,108.46.027,216.913c0,8.609.069,17.22-.068,25.822a5.555,5.555,0,0,1-1.508,3.844c-10.228,8.3-20.587,16.433-31.635,25.195ZM1206.65-2838.4a91.781,91.781,0,0,0-7.583-5.937c-3.381-2.135-4.352-4.821-4.346-8.816q.2-119.472.173-238.954c.006-3.479-.916-5.434-4.078-7.232-35.285-20.056-70.454-40.314-105.691-60.446-2.355-1.344-3.375-2.8-3.334-5.634.172-12.048.124-24.1.028-36.147a4.262,4.262,0,0,1,2.459-4.325c16.3-9.312,32.489-18.8,48.812-28.061,2.522-1.426,3.472-2.941,3.458-5.868q-.216-67.651-.213-135.3c-.007-4.932.041-9.87.2-14.795a4.374,4.374,0,0,1,1.026-3c10.552-8.348,21.187-16.586,32.427-25.333v4.043q0,96.921.056,193.847a5.356,5.356,0,0,1-3.079,5.421c-15.917,9.119-31.731,18.41-47.587,27.633-1.68.978-3.257,1.667-3.209,4.25.041,2.417,1.536,3.1,3.086,3.988q23.669,13.607,47.345,27.179c19.424,11.2,38.813,22.468,58.27,33.619,2.466,1.412,3.32,3.086,3.32,6q-.144,143.061-.076,286.121v4.712C1220.446-2827.5,1213.545-2832.948,1206.65-2838.4Zm-256.318-18.659q-64.148-37.152-128.372-74.174a4.053,4.053,0,0,1-2.294-4.084q.073-74.717-.013-149.428a4.379,4.379,0,0,1,2.438-4.36q29.61-17.037,59.18-34.136c3.864-2.231,7.6-4.71,11.6-6.667,2.707-1.329,2.514-2.569,1.13-4.739a65.986,65.986,0,0,1-10.042-45.424c3.541-25.884,17.509-44.653,41.464-54.943,24.63-10.587,48.248-7.232,69.69,8.8,15.38,11.495,24.644,27.027,27.1,46.182,2.039,15.827-.743,30.843-9.057,44.653-.7,1.178-1.385,2.37-2.349,4,7.928,4.6,15.525,9.023,23.135,13.418q24.972,14.422,49.977,28.783a4.845,4.845,0,0,1,2.79,4.842q-.124,74.2-.007,148.4a5.111,5.111,0,0,1-2.927,5.138q-63.952,36.8-127.795,73.781a5.528,5.528,0,0,1-2.789.877A5.671,5.671,0,0,1,950.332-2857.062Zm-205.287-20.746q0-109.669-.055-219.344c0-2.562.62-4.01,3-5.366q44.725-25.53,89.244-51.4a5.039,5.039,0,0,0,2.059-3.705c.145-16.524.062-33.054.145-49.585a4.307,4.307,0,0,0-2.542-4.305c-10.38-5.868-20.669-11.9-31.028-17.811-1.6-.916-2.555-1.819-2.555-3.926q.113-64.738.068-129.475c0-.565.1-1.129.213-2.473,3.307,2.473,6.268,4.636,9.168,6.874,7.156,5.517,14.264,11.1,21.448,16.586a5.755,5.755,0,0,1,2.521,5.131c-.09,27.661-.034,55.322-.111,82.983-.006,2.445.6,3.892,2.873,5.159,10.71,5.951,21.263,12.165,31.931,18.184a4.024,4.024,0,0,1,2.438,4q-.093,43.733.007,87.467c.006,2.362-1.068,3.443-2.907,4.5q-44.839,25.561-89.657,51.155c-2.342,1.335-3.065,2.8-3.058,5.414q.1,86.94.1,173.893a6.732,6.732,0,0,1-2.8,6.075c-9.264,7.149-18.369,14.5-27.544,21.765-.779.613-1.64,1.129-2.962,2.038Zm410.161-1.384c-8.107-6.4-16.151-12.88-24.355-19.147a7.024,7.024,0,0,1-2.968-6.337c.089-57.732.034-115.472.144-173.2.007-3.217-1.075-4.849-3.781-6.385-29.617-16.807-59.159-33.764-88.755-50.612a5.11,5.11,0,0,1-3.017-5.11q.146-43.207.014-86.427c0-2.321.613-3.678,2.762-4.869,10.8-6.013,21.448-12.3,32.248-18.315,2.121-1.184,2-2.768,2-4.608-.007-27.661-.034-55.321.076-82.983a6.637,6.637,0,0,1,1.936-4.656c9.746-7.776,19.671-15.325,29.548-22.943.427-.324.9-.6,1.942-1.3v10q0,60.428.055,120.865a5.515,5.515,0,0,1-3.279,5.579q-15.466,8.648-30.677,17.722a5.13,5.13,0,0,0-2.17,3.692c-.144,16.641-.062,33.281-.138,49.922a4.064,4.064,0,0,0,2.425,4.022q44.828,25.705,89.6,51.479a4.012,4.012,0,0,1,2.383,3.988q-.073,111.054-.049,222.1c0,.455-.062.9-.151,2.025C1158.849-2876.36,1157.018-2877.766,1155.206-2879.192Z" transform="translate(694 3451)" fill="#fff" stroke="rgba(0,0,0,0)" stroke-miterlimit="10" stroke-width="1"/>
  </g>
</svg>
