<svg id="Logo_g" data-name="Logo g" xmlns="http://www.w3.org/2000/svg" width="300.02" height="77.78" viewBox="0 0 300.02 77.78">
  <defs>
    <style>
      .cls-1 {
        fill: #fff;
      }

      .cls-2 {
        fill: #fb3640;
      }
    </style>
  </defs>
  <path id="Path_1" data-name="Path 1" class="cls-1" d="M157.93,41.08V56.205h-6.193V41.08H146V78.224h5.781V61.5h6.193v16.72h5.772V41.08Z" transform="translate(-57.306 -20.762)"/>
  <path id="Path_2" data-name="Path 2" class="cls-1" d="M186.84,46.386V41.07H171.05V78.223h15.79V72.907h-9.983V61.5H184.8V56.187h-7.939v-9.8Z" transform="translate(-60.382 -20.761)"/>
  <path id="Path_3" data-name="Path 3" class="cls-1" d="M198.6,72.908V41.08H192.83V78.224H208.1V72.908Z" transform="translate(-63.057 -20.762)"/>
  <path id="Path_4" data-name="Path 4" class="cls-1" d="M219.19,72.908V41.08H213.4V78.224h15.29V72.908Z" transform="translate(-65.583 -20.762)"/>
  <path id="Path_5" data-name="Path 5" class="cls-1" d="M248.58,42.927a9.935,9.935,0,0,0-13.035,0c-1.518,1.63-2.254,3.925-2.254,6.894V69.314c0,2.977.754,5.316,2.254,6.9a8.576,8.576,0,0,0,6.518,2.437,8.472,8.472,0,0,0,6.518-2.437c1.518-1.622,2.254-3.925,2.254-6.9V49.8A9.829,9.829,0,0,0,248.58,42.927Zm-3.509,26.786c0,2.446-1,3.66-3,3.66s-2.991-1.214-2.991-3.66V49.448q0-3.651,2.991-3.66t3,3.66Z" transform="translate(-68.026 -20.695)"/>
  <path id="Path_6" data-name="Path 6" class="cls-2" d="M282.255,43.419q-2.14-2.339-6.456-2.339H267.29V78.224h5.79V63.1h2.728q4.316,0,6.456-2.33c1.439-1.559,2.167-3.837,2.167-6.849V50.26C284.422,47.256,283.7,44.979,282.255,43.419ZM278.632,54.3a3.982,3.982,0,0,1-.711,2.658,2.66,2.66,0,0,1-2.123.8H273.08V46.388h2.728a2.66,2.66,0,0,1,2.123.8,4.009,4.009,0,0,1,.711,2.7Z" transform="translate(-72.201 -20.762)"/>
  <path id="Path_7" data-name="Path 7" class="cls-2" d="M306.156,46.386V41.07H290.41V78.223h15.746V72.907h-9.965V61.5h7.895V56.187h-7.895v-9.8Z" transform="translate(-75.04 -20.761)"/>
  <path id="Path_8" data-name="Path 8" class="cls-2" d="M310.4,41.079V46.4h6.044V78.223h5.763V46.386h6.053V41.07Z" transform="translate(-77.495 -20.761)"/>
  <path id="Path_9" data-name="Path 9" class="cls-2" d="M349.68,46.386V41.07H333.89V78.223h15.79V72.907h-9.974V61.5H347.6V56.187h-7.895v-9.8Z" transform="translate(-80.379 -20.761)"/>
  <path id="Path_10" data-name="Path 10" class="cls-2" d="M372.931,76.284c-.061-.656-.105-1.515-.105-2.578V67.184a13.036,13.036,0,0,0-.877-5.254,4.488,4.488,0,0,0-2.965-2.6v-.106q3.781-1.542,3.781-7.319V49.622c0-2.9-.675-5.042-2.044-6.442s-3.509-2.1-6.518-2.1H355.65V78.224h5.772V62.275h2a3.41,3.41,0,0,1,2.807,1.01,5.788,5.788,0,0,1,.816,3.544v6.787a23.784,23.784,0,0,0,.105,2.871,9.281,9.281,0,0,0,.412,1.692H373.5A6.49,6.49,0,0,1,372.931,76.284ZM367,53.069a4.257,4.257,0,0,1-.877,3.03,3.417,3.417,0,0,1-2.632.886h-2.105V46.352h2.632a2.688,2.688,0,0,1,2.246.886,4.751,4.751,0,0,1,.7,2.915Z" transform="translate(-83.051 -20.762)"/>
  <path id="Path_11" data-name="Path 11" class="cls-2" d="M380.435,72.6v5.627H386V72.6ZM380.33,41.08v15.5l.728,11.829h4.316l.728-11.829V41.08Z" transform="translate(-86.082 -20.762)"/>
  <path id="Path_15" data-name="Path 15" class="cls-1" d="M83.4,18.15A38.892,38.892,0,1,0,121.891,57,38.7,38.7,0,0,0,83.4,18.15ZM66.548,76.5v-.053C66.548,76.392,66.566,76.5,66.548,76.5Zm27.763,6.575c-2.982.505-13.062-1.125-12.4-2.162s5.36-2.366,6.368-2.658,2.842.284,5.325-.673,6.07.647,6.07.647c-3.447,1.329-2.368,4.306-5.36,4.811Zm-7.895-9.508c-.07-.886.658-1.772,1.149-1.657s4.711,2.277,6.14.5,2.7-.124,1.553.292-1.912,3.633-1.912,3.633a1.82,1.82,0,0,1-2.307-1.152c-.816-1.692-4.561-.78-4.632-1.648Zm23.246-20.017c-1.14,1.941-1.754,2.729-1.175,3.633s1.061,1.949.781,2.233-.211,1.923-1.518,1.542l-2.7-1.657a27.365,27.365,0,0,0-.877-2.738c-.325-.656.254-1.648,0-2.658a2.584,2.584,0,0,0-1.544-2.073c-.877-.328-1.395-3.385-1.64-4.3a10,10,0,0,0-1.316-2.977c-.237-.089-3.026-.824-3.026-.824H90.54a17.668,17.668,0,0,0-2.044.328c-.57.16-1.553.328-1.553.328l-1.079,7.177s-.491-6.371-1.219-7.275-3.3.576-3.3.576-1.026,3.42-.544,5.254a6.045,6.045,0,0,0,.526.886,1.651,1.651,0,0,1-.526-.886c-.658-1.285-1.526-3.7-.14-5.83-.193.124-6.5,3.987-6.588,5.21a3.6,3.6,0,0,0,1.807,2.818,2.2,2.2,0,0,1-1.939-.365,2.249,2.249,0,0,1-.886-1.78s-3.9,1.391-2.307,4.8c1.114,2.392-.877,3.172-1.965,5.166L75.8,62.427a5.6,5.6,0,0,1,4.886-3.987c2.526-.363,5.053.8,5.9,2.658a4.375,4.375,0,0,1,2.895-1.63A4.666,4.666,0,0,1,93.18,61.24h0A5.6,5.6,0,0,1,98.1,57.191c3.079-.425,5.833,1.223,6.14,3.695s-1.886,4.829-4.956,5.254-5.833-1.214-6.14-3.686a.958.958,0,0,1,0-.222L92.68,62.1l-.088-.1a3.873,3.873,0,0,0-3.018-1.542,4.833,4.833,0,0,0-2.693,1.613.116.116,0,0,0,0,.053c.333,2.472-1.877,4.829-4.947,5.254s-5.851-1.214-6.184-3.686V63.42l-7.3-2.392a5.852,5.852,0,0,0-.14,2.534c.544,3.633,1.018,5.706,1.246,6.592-.386-1.32-1.491-4.758-2.632-4.82-1.43-.089-3.263-.753-2.982,1.152a97.85,97.85,0,0,0,2.579,9.9,22.065,22.065,0,0,1-4.868-9.632c-1.263-6.034-2.368-2.809-2.693-4.218s-.167-3.925-.535-4.546-2.211-3.394-1.228-4.342a2.782,2.782,0,0,0,.772-2.313.68.68,0,0,0-.044-.292c-.044-.1-.07-.292-.114-.416a1.659,1.659,0,0,1,1.061-1.772c.456,0,1.36-4.094,1.754-4.43s.7.576.7.576,1.105-4.43,1.64-4.918,3.684-3.394,4.132-1.87.325-3.589,3.816-1.2,2.035-2.313,5.2-3.022a5.157,5.157,0,0,1,4.9,1.285s1.965-3.97,5.412-4.262,4.991.416,5.368.992,4.895,1.241,5.526,1.825,2.632.372,2.939.5-.728,1.4-.36,1.568a17.821,17.821,0,0,0,3.07,1.116c.877.168,0,1.692.07,1.905s1.035,3.022,1.482,4.094a20.514,20.514,0,0,1,.877,2.446c0,.239.36,2.189.36,2.189a.879.879,0,0,1,.491.416c.132.284,1.754.824,1.526,2.268s2.991,1.232,1.868,3.181Z" transform="translate(-44.89 -18.15)"/>
</svg>
