<svg xmlns="http://www.w3.org/2000/svg" width="230.797" height="131.06" viewBox="0 0 230.797 131.06">
  <defs>
    <style>
      .cls-1 {
        fill: #fff;
        opacity: 0.13;
      }
    </style>
  </defs>
  <path id="spidy_net" data-name="spidy net" class="cls-1" d="M1808.72-3.21h0Zm112.54,16.39V-3.21h-7.12l-8.47,5.3a32.854,32.854,0,0,0-3.16-.95,21.33,21.33,0,0,1-9.33-4.35h-5.47a43,43,0,0,0,13.86,8.1c-3.4,2.4-6.58,5.31-10.29,7.07-2.35,1.11-5.54.85-8.29.62-4.46-.37-7.54-3.07-9.55-7-1.48-2.92-3.1-5.78-4.36-8.79h-3.88c1.66,3.4,3.27,6.72,4.92,10,3.05,6.1,8,9.33,14.83,9.51.11.23.21.46.31.68-3.59,2.07-7.14,4.19-10.74,6.19a3.71,3.71,0,0,1-4.11-.25c-5.56-3.94-9.53-9-11-15.79a5.17,5.17,0,0,1,.46-3c1.15-2.48,2.41-4.91,3.66-7.33h-3.92c-1.18,2.31-2.34,4.53-3.66,6.66s-4,2.71-6.36,2.64c-4.49-.12-9-.58-13.45-1a8.459,8.459,0,0,1-2.5-.79c-2.07-.85-3.49-2.05-3.67-4.63-.06-1-.14-1.93-.27-2.9h-3.79c0,.47.06.93.07,1.4.12,3.6-1.13,6.47-5,7.56-5.49,1.54-11,2.55-16.61.62a6.361,6.361,0,0,1-2.82-2.22c-1.71-2.35-3.24-4.84-4.87-7.36h-8a17.821,17.821,0,0,1-.41,3.29,28.741,28.741,0,0,1-5.59,11.79,17.669,17.669,0,0,1-6.92,5.61c-2.53,1-5,2.15-7.6,3.15a2.63,2.63,0,0,1-1.81.08c-3.37-1.44-6.72-3-10.23-4.56,8.32-5.36,15.24-11.53,19.65-19.36h-4.27c-.34.53-.7,1-1.06,1.56a47.62,47.62,0,0,1-16.8,15,3,3,0,0,1-3.28.07c-3.8-2.06-7.64-4-11.48-6-.48-.25-.91-.59-1.71-1.11a50,50,0,0,0,13.14-9.46h-5.18a44.6,44.6,0,0,1-8.5,5.77,6.28,6.28,0,0,1-4.22.78,49.568,49.568,0,0,1-8.34-3.86,5,5,0,0,1-1.8-2.69h-8.46a2.82,2.82,0,0,0,.29,1.58,6.2,6.2,0,0,0,5.42,2.83,3.66,3.66,0,0,1,1.53.49c1.89,1,3.75,2,5.63,3,1.62.83,3.28,1.55,4.86,2.45a2.23,2.23,0,0,1,1,1.41c1.31,10.63-.75,20.52-7.19,29.16-4.43,5.93-9.34,11.48-14,17.23a4.26,4.26,0,0,1-3.48,1.79c-2.32,0-4.62.35-6.94.48a2.16,2.16,0,0,1-1.51-.41c-1.62-1.89-3.59-1.49-5.55-.94-1.55.45-3.86,3.21-3.33,4.33a9.68,9.68,0,0,0,3.19,3.63c1.31.92,5.26-.6,6.22-2,.26-.39.59-1,.9-1,3.12-.09,6.49-.86,9.28.06a30.5,30.5,0,0,1,15.72,12,97.167,97.167,0,0,1,9,16.69,49.826,49.826,0,0,1,3.82,21.47,5.231,5.231,0,0,1-1.44,3.46,63.286,63.286,0,0,1-6.85,4.93,3.9,3.9,0,0,1-4,.61,3.93,3.93,0,0,0-3,.51c-1.39.79-2.53,4.5-1.82,5.93a2.84,2.84,0,0,0,.8.88,1.661,1.661,0,0,0,1.13.43c.54-.13,1.16-.26,1.77-.43a4.37,4.37,0,0,0,2.37-1.35c1.5-2.15,3.73-3,5.71-4.33,2.18-1.47,4.26-3.09,6.49-4.47a3,3,0,0,1,2.38-.1,41.939,41.939,0,0,1,11,6.77,33.21,33.21,0,0,1,3.62,3.48h4.63a33.79,33.79,0,0,0-6.35-6.35c-3.11-2.38-6.4-4.54-9.76-6.91l10.88-6.8c1.39.38,2.41.72,3.46.94a22.33,22.33,0,0,1,9.86,4.87c4.46,3.69,8.59,7.8,11.3,13,.22.43.43.86.64,1.29h4.24a49.839,49.839,0,0,0-8.41-11.68c-4.76-5-9.94-9.36-17.26-11,2.73-1.93,5.34-3.52,7.65-5.47,3.7-3.14,7.91-2.92,12.2-2.29,3.92.58,6.54,3,8.36,6.36,1.62,3,3.27,6.07,4.61,9.23,1.62,3.77,2,7.63-.06,11.48-.62,1.11-1.19,2.23-1.76,3.36h3.9a16.21,16.21,0,0,1,3.21-4.61,14.351,14.351,0,0,1,8.08-4.11,65.323,65.323,0,0,1,10.62-.81c6.72.26,11.72,4.21,16.41,8.6a2.212,2.212,0,0,1,.57.93h3.93c.7-5.41,6.53-10.93,11.83-11.17a75.418,75.418,0,0,1,13.84.68,11.22,11.22,0,0,1,8.43,5.52c1,1.68,2,3.3,3.19,5h4.12a72.522,72.522,0,0,1-5-7.92,13.89,13.89,0,0,1-.6-10.29,33.7,33.7,0,0,1,5.14-11,18.639,18.639,0,0,1,7.68-6.42c2.48-1,4.94-2.1,7.42-3.07a2.65,2.65,0,0,1,1.8,0c3.33,1.42,6.63,2.92,10.15,4.5-12.93,8.38-22.51,18.71-24.32,34.21H1885c.48-5.88,2.79-11.09,6.27-16.06a47.43,47.43,0,0,1,17-15.28,2.91,2.91,0,0,1,3.12-.14c3.24,1.75,6.52,3.43,9.8,5.14V97l-7.35-3.91c-.34-1.31-.55-2.38-.89-3.4a19.88,19.88,0,0,1-.67-11.13,125.744,125.744,0,0,1,4.5-14.28,22.728,22.728,0,0,1,4.41-7V49c-3.37.14-6.37.15-9.32.48-5.73.65-10-1.73-13.67-5.84-3.2-3.6-5.92-7.51-7-12.27-1.13-4.92-.48-9.82.71-14.66a1.89,1.89,0,0,1,.53-1c3-2.21,6.06-4.39,9.6-7-.47,8.51,1.51,15.82,4.72,23,3.12,7,7.56,12.63,14.46,16.7V44.38A30.549,30.549,0,0,1,1910.78,32c-3.77-7.56-5.84-15.46-5.27-23.94a3.249,3.249,0,0,1,1.1-2.28c3.91-2.62,7.91-5.08,11.88-7.59a13.02,13.02,0,0,1,1.33-.56,49.567,49.567,0,0,0,1.44,15.55ZM1881.18,51c-.06.23-.11.45-.17.68-3.91-.27-7.82-.51-11.72-.82-3.24-.25-5.1-2.21-5.88-5.21a20.987,20.987,0,0,1-.72-4.44,4.509,4.509,0,0,1,1.87-4.06c2.52-1.84,4.89-3.88,7.54-6C1873.42,38.7,1877,45,1881.18,51Zm-6.36,24.8c-3.55-1.36-7.09-2.46-10.35-4.1-1-.52-1.8-2.44-1.9-3.78-.33-4,.53-7.85,3.41-10.92a3.772,3.772,0,0,1,2-1.24c4.46-.45,8.94-.75,13.74-1.12-4.31,6.58-7.78,13.07-6.9,21.16Zm-87.6-42.37c3.63,1.41,7.14,2.57,10.44,4.17.92.44,1.61,2.14,1.7,3.32.4,4.31-.4,8.38-3.63,11.58a3.74,3.74,0,0,1-2.09,1c-3.87.37-7.74.61-11.61.88h-1.68c4.39-6.38,7.58-12.91,6.87-20.95Zm31.48,24c-1.35.54-2.43,1.77-3.65,2.68-.35.25-.72.43-1.11.66-.66-1.75-1.3-3.39-2-5.24l8.85-1.48c-.19,1.79-.57,2.74-2.09,3.34Zm1.4,10.22c-1.5-1.39-2.78-2.6-4.2-3.93l4.57-2.77c2.13,2.49-.18,4.38-.37,6.66Zm-4.64.34a5.41,5.41,0,0,1,1.45,6.74c-1,1.8-1.77,3.72-2.8,5.88-2.27-4.21-5.76-6.82-9.93-9.11,2.42-1.58,4.56-3.1,6.84-4.39,1.59-.95,3.14-.11,4.44.89Zm5.45,8.76a4.581,4.581,0,0,1,6.73.13,1.67,1.67,0,0,1,.55.93c.19,2.54.29,5.08.45,7.9-3.94-1.78-7.73-3-11.86-1.84l-.42-.46a69.225,69.225,0,0,1,4.55-6.7Zm4.52-13.65c1.5,1.26,2.08,2.18,1.79,3.74-.19,1.14.35,2.41.48,3.62a15.166,15.166,0,0,1,0,2l-5.54-.84c1.04-2.69,2.12-5.51,3.27-8.56Zm-1.88-12.48a5.051,5.051,0,0,1,1,.69c.31.37.42.89.74,1.26,1.32,1.59,1.19,2.08-.65,2.86-.46-1.3-.92-2.49-1.27-3.71a2.5,2.5,0,0,1,.18-1.14Zm5,10c-1.43-.27-2.68-.44-3.92-.78-.37-.11-.6-.67-1.13-1.26a26.752,26.752,0,0,0,2.93,0c1.92-.36,2.29.01,2.1,1.97ZM1823.65,46c-2.22-.93-4.33-2.11-6.43-3.16,1.18-1.46,2.3-2.85,3.48-4.34,1.81,2.17,3.68,4.43,6,7.18C1825.23,45.89,1824.3,46.3,1823.65,46Zm-3.41,2.55c-.92,3.19-3.73,2.07-5.86,3,.44-2,.81-3.71,1.22-5.56Zm-6.77-8a2.29,2.29,0,0,1-1.24-.07,13.567,13.567,0,0,1-1.68-.8L1805.26,37c3.66-2.51,6.53-5.22,7.57-9.4l.57-.09a71.579,71.579,0,0,1,3.45,7.11,4.55,4.55,0,0,1-3.38,5.96Zm-3,3.22c1,.75,1.27,3,1.11,4.4-.29,2.5-2.44,4-5,4.22-2,.16-4.1.34-6.56.55,2.72-4.18,3-8.46,3.07-13.1,2.58,1.36,5.25,2.31,7.35,3.96Zm-3.56,13.14c1.92.29,2.94,1.71,3.28,3.64a3.64,3.64,0,0,1-2.17,4.27c-1.68.9-3.23,2.08-4.89,3.16a51.614,51.614,0,0,0-1.46-6,55.789,55.789,0,0,0-3-5.72c2.86.22,5.55.29,8.21.68Zm-13.34,1.54c2.12.5,3.8,1.49,4.42,3.56a24.651,24.651,0,0,1,1.26,6.55,5.31,5.31,0,0,1-1.81,3.43c-2.31,2.11-4.85,4-7.5,6.06-1.32-7.51-4.86-13.82-9.23-20a36,36,0,0,1,12.83.43Zm6.16,16.45c.87-.57,2.87-.26,3.88.38a26,26,0,0,1,6.18,5c2,2.39,2.65,5.18.73,8.3s-3.17,6.36-4.89,9.9c-3.48-7.09-7.44-13.21-14.9-16.58,3.03-2.37,5.86-4.9,8.97-6.97Zm17.63,12.62a2.809,2.809,0,0,1,1.36-.52,12.52,12.52,0,0,1,8.57,2.06,4.46,4.46,0,0,1,2.15,3.53c.32,3,.87,6,1.35,9.28-8.2-2.39-9.61-2.51-21.85-2a30.359,30.359,0,0,1,8.39-12.32Zm12.43-32.94a1.89,1.89,0,0,1,1.3-1.35c.47-.06,1,.7,2,1.43-1,.67-1.59,1.37-2.06,1.3a1.83,1.83,0,0,1-1.27-1.35Zm1.5,7.33c.17-.5.63-.89.81-1.38.67-1.86,1.24-2,2.73-.82-.9,1.09-1.69,2.08-2.52,3-.23.25-.68.29-1,.43a3.434,3.434,0,0,1-.05-1.2Zm27.71,7.5c-2.63-1.33-5.14-2.42-7.47-3.84-2-1.23-1.71-5.53.49-7.32a6.908,6.908,0,0,1,3.16-1.33c2.15-.36,4.32-.45,6.78-.68C1859.38,60.35,1858.91,64.7,1859,69.41Zm-5.14-17.66a4.14,4.14,0,0,1-.25-7c1.75-1.16,3.51-2.31,5.51-3.62.36,4.38,1.23,8.22,4.46,11.43-3.58.44-6.75.8-9.73-.81Zm-3.18-9.5c-1.08.46-3.07-.31-4.24-1.11a5.19,5.19,0,0,1-1.32-6.6c1-1.72,1.74-3.61,2.59-5.42,0-.1.2-.14.38-.26,2,4.11,5.64,6.54,9.65,8.92-2.44,1.61-4.58,3.43-7.07,4.47Zm-14,3.71c-1.61-.89-2.17-1.81-1.9-3.38.16-1-.35-2-.44-3a24.9,24.9,0,0,1,0-2.73l5.52.81c-1.06,2.67-2.1,5.43-3.2,8.34Zm1.91,12.75c-.37-.14-.84-.19-1-.45-.37-.47-.49-1.13-.87-1.6-1.26-1.56-1.08-2.16.69-2.72.48,1.27,1,2.52,1.39,3.78.04.28-.18.66-.23.99Zm-1.21-9.25c.33.08.6.44.9.68a3.729,3.729,0,0,1-1.07.58c-.52.1-1.09-.07-1.61,0-1.92.35-2.37-.14-2-2,1.26.28,2.52.47,3.76.74Zm2.18,14.43c.72.63,1.89.71,2.84,1.13s1.64.87,2.44,1.3l-3.49,4.4c-1.81-2.16-3.71-4.41-5.69-6.79,1.5-.99,2.57-1.2,3.88-.04Zm2.31-22.26,4.24,3.93-4.5,2.78c-2.32-2.47.19-4.34.24-6.71Zm1.31,10.28a16.711,16.711,0,0,0,3-2.28c.6-.42,1.25-.75,1.86-1.11.67,1.76,1.33,3.42,2,5.23l-8.75,1.48c.04-1.74.37-2.71,1.87-3.32Zm-2.93-18.7a4.15,4.15,0,0,1-6.52-3.2c-.13-2-.22-4.08-.33-6.49,4,1.88,7.72,3,12,1.82-1.09,3.23-2.55,5.98-5.17,7.87Zm-8.94,33.64c3.15-.61,3.56,2.33,5.48,3.67l-5.48,1.69Zm.6,10.85c.12-1.11,1.77-2.41,3-3,2.41-1.06,4.83-.06,6.36,2.12l3.44,4.92s.06.12.2.47c-4.71-.17-8.67,1.57-12.71,4-.2-2.97-.63-5.78-.31-8.51Zm9.78-17.09c1.18-3.19,4-2.07,6-3-.42,1.93-.8,3.6-1.25,5.57Zm9.29,8.67c1.73.87,3.45,1.76,5.18,2.65a3.07,3.07,0,0,1,.42.38c-3.32,2.36-6.3,5-7.37,9.43-2.35-2.65-4.11-5.4-4.28-8.78a4.16,4.16,0,0,1,6.07-3.68Zm2.2,11.67a11.51,11.51,0,0,1,6-5.92,5.67,5.67,0,0,1,3.75,0c3,1,5.86,2.23,9,3.46-5.93,4.87-9.58,11.08-12.8,18a65.839,65.839,0,0,1-4-6.17,35.163,35.163,0,0,1-2.31-6.53,4.9,4.9,0,0,1,.34-2.79Zm3.24-70.21c3.51,7,7.36,13.2,14.91,16.53a110.921,110.921,0,0,1-8.87,6.93c-1,.62-3.08.32-4.2-.34a23,23,0,0,1-5.89-4.81c-2-2.45-2.75-5.27-.81-8.46,1.8-3.02,3.13-6.35,4.84-9.85Zm-3.3-1.42a31,31,0,0,1-8,12.07,4.359,4.359,0,0,1-2.21.87c-2.94.42-5.56-.61-8-2.05a4.36,4.36,0,0,1-2.22-3.47c-.31-3.09-.88-6.16-1.39-9.48,7.19,2.68,14.39,2.74,21.8,2.06Zm-21.69,36.85a20.584,20.584,0,0,0-1.5,2.58c-.69,1.79-1.33,1.93-2.7.71.86-1,1.65-2.08,2.57-3,.2-.28.84-.18,1.61-.29Zm-.58-4.57c0,.28-.41.8-.57.78a4,4,0,0,1-2-.53,35.379,35.379,0,0,1-2.86-3.19l5.5-1.68c-.07,1.58-.04,3.1-.09,4.62Zm-1-18.38c.14,2.71.66,5.44.27,8-.2,1.27-1.92,2.75-3.28,3.31-2.39,1-4.59-.07-6.14-2.26-1.18-1.66-2.33-3.33-3.44-4.9,2.44-.57,4.61-.9,6.65-1.58s3.82-1.64,5.91-2.57ZM1827.5,6.06a111.376,111.376,0,0,1,1.5,11.05,5.28,5.28,0,0,1-2.34,3.53c-3.35,2.2-7.05,3.55-11.18,2.44a4,4,0,0,1-2.06-1.13c-2.57-3.6-5-7.28-7.78-11.32,7.98.6,15.26.17,21.83-4.57Zm-24.63,6.75A30.472,30.472,0,0,1,1809.05,25a5.26,5.26,0,0,1-.54,3.86,25.929,25.929,0,0,1-5.5,5.22c-.91.64-2.68.53-3.87.15-3-.94-5.84-2.22-9-3.47,5.86-4.87,9.52-11.08,12.7-17.95Zm-10.2-16c2.28,3.62,4.5,6.81,6.38,10.17,1.44,2.57.49,5.26-.86,7.51-2.19,3.65-4.71,7.08-7.13,10.56a9.657,9.657,0,0,1-1.89,1.83c-2,1.61-3.91,2.32-6.48,1-3.32-1.67-6.85-2.94-10.3-4.39-.08-.2-.19-.4-.27-.6,12.55-4,18.12-13.54,20.52-26.04Zm-22,29.7c4.49,2.28,9.23,3.17,12.29,7a4.79,4.79,0,0,1,.91,3.11c-.62,6.43-2.92,12.16-7.66,16.66a7.109,7.109,0,0,1-3.82,1.6c-3.15.35-6.32.38-9.51.53,2.47-3.69,4.85-7.25,7.23-10.84,3.72-5.66,3.97-11.57.51-18.02Zm-18-8.18,4.94,2.3a23.542,23.542,0,0,0,2.57,1.16c5.45,1.77,7.71,6.13,9.16,11.17.94,3.3-.16,6.22-1.78,9a94.873,94.873,0,0,1-5.79,8.77c-2.5,3.24-5.66,5.49-10.09,5.51-3.28,0-6.58.33-10.2.53,9.26-11.49,13.67-23.77,11.18-38.4ZM1715.93,54.9c2.94-3.58,5.79-7.25,8.87-10.72a45.861,45.861,0,0,0,11.6-26.17,80.229,80.229,0,0,0,0-8.09l11.69,6.23c.36,1.37.62,2.55,1,3.71a23,23,0,0,1,.54,11.14c-1,5.44-2.34,10.85-5.34,15.55a98.911,98.911,0,0,1-7.45,9.36,1.879,1.879,0,0,1-1.27.6h-20.79c.54-.71.82-1.16,1.14-1.57Zm40.66,45.24c-.06,1.76-.38,3-2,4-4,2.36-7.93,4.93-12.37,7.73.75-10.66-2-20.07-6.43-29.07s-9.28-17.33-18.11-22.76h16a3.929,3.929,0,0,1,1.89,1,36.814,36.814,0,0,0,3.42,2.61c6,3.33,9.93,8.33,12.81,14.48a47.06,47.06,0,0,1,4.78,22.05ZM1770,92.56a1.622,1.622,0,0,1-.51,1c-3,2.21-6,4.39-9.21,6.69-.87-16.42-5.46-30.59-20.26-40.1h2.3c2.62-.09,5.29,0,7.88-.32,4.91-.62,8.93,1.19,12.22,4.49,4.5,4.49,8.28,9.66,8.71,16.22C1771.41,84.47,1770.46,88.53,1770,92.56Zm4.61-2.85c.19-5.84.71-11.54-2-17A42.07,42.07,0,0,0,1761.81,59c4.34-.19,8.2-.53,12-.46,2.93,0,4.81,2.25,6.06,4.55,2.13,3.88,3.87,8,5.73,12a7.422,7.422,0,0,1,.45,1.83c.36,2.53.13,4.67-2.4,6.3-3.04,1.95-5.82,4.37-9.01,6.49Zm23,24.41c-1.94-4-3.79-7.75-5.67-11.55-3-6.16-7.94-9.45-14.88-9.64l-.43-.51a9.076,9.076,0,0,0,1.15-.5c3.24-1.94,5.8-4.93,9.65-6,1.57-.41,3-.53,4.28.42,5.32,3.8,9.19,8.67,10.72,15.11a6.7,6.7,0,0,1-.48,3.91c-1.28,3.01-2.85,5.84-4.33,8.76Zm35.56,7.45c-10-8.92-21-9-33-4.87,1.94-3.74,3.56-7.25,5.51-10.55,1.5-2.5,4.31-3.12,6.94-3,4.68.17,9.32.74,14,1.19a6.549,6.549,0,0,1,1.76.6c2.16.9,3.52,2.25,3.66,4.85.15,3.11.74,6.21,1.1,9.31a17.477,17.477,0,0,1,.04,2.47Zm-.24-29.66c-.06-1,1.2-2.6,2.24-3.19a24,24,0,0,1,7.1-2.78c3.18-.57,6.1.07,7.93,3.47,1.7,3.11,3.91,5.94,6.11,9.18-7.9-.59-15.17-.17-21.78,4.59-.6-3.88-1.36-7.56-1.59-11.27Zm22.25,20.63c-1.55-.11-3.12-.14-4.68-.1-5.77.12-9.94,3-13.06,7.64a4.743,4.743,0,0,1-.66.55c0-4.49-1.71-8.72-.24-13a5.579,5.579,0,0,1,2.4-3.08,25.08,25.08,0,0,1,18.62-1.72,6.119,6.119,0,0,1,2.83,2.22c1.91,2.63,3.61,5.4,5.46,8.25-3.65-.3-7.15-.54-10.66-.76Zm14.21-.31c-1.13-1.7-2.12-3.17-3.09-4.64a33.539,33.539,0,0,0-1.88-2.81c-2.69-3.26-2.6-6.8-.58-10.15,2.37-3.88,5.18-7.5,7.81-11.21a6.246,6.246,0,0,1,1.4-1.26c1.86-1.38,3.67-2.17,6.13-.92,3.34,1.69,6.88,2.93,10.34,4.36.09.24.18.47.29.7-12.49,4.08-18,13.58-20.41,25.93Zm21.26-29.47c-3.47-2-7-3.94-10.39-6-1.87-1.08-2.36-2.81-2.08-4.84.87-6.23,3-11.86,7.8-16.17a6.612,6.612,0,0,1,3.48-1.43c3.18-.33,6.37-.39,9.79-.58-2,2.85-3.8,5.45-5.55,8.13-1.12,1.72-2.14,3.51-3.13,5.32-2.76,5.05-1.82,10,.44,14.92a4.032,4.032,0,0,1-.35.65Zm19.19-29.7c3.44-.05,6.86-.37,10.67-.59-9.21,11.54-13.73,23.86-11.17,38.39-3.84-1.76-8-3.09-11.45-5.38-5.41-3.56-6.89-12.4-3.49-18.11a83.837,83.837,0,0,1,6-9.08c2.37-2.97,5.32-5.16,9.45-5.23Zm-9.59-2.73c-4.55.11-8.61.42-12.67.26-2.67-.11-4.36-2.31-5.5-4.42-2.12-3.89-3.87-8-5.7-12a8.247,8.247,0,0,1-.54-2.38c-.28-2.21,0-4.05,2.18-5.49,3.13-2.12,6-4.58,9.06-6.89l.75.11c-2.71,12.87,2.77,22.39,12.43,30.81Zm2.88,72.59c-1,1.44-1.92,2.89-2.8,4.35h4.07c.93-1.41,1.89-2.81,2.86-4.2a52.918,52.918,0,0,1,14-14V105c-7.57,4.47-13.26,10.7-18.12,17.92Z" transform="translate(-1690.463 3.22)"/>
</svg>
